Patient4_TMGait_0pt3_02_left_16_EMG.mot
version=1
nRows=23
nColumns=33
inDegrees=no
endheader
time	1LAddLong	2LGlutMax	3LGlutMed	4LIliopsoas	5LSemiMemb	6LBicFemLong	7LRecFem	8LVastMed	9LVastLat	10LGasMed	11LTibAnt	12lTibPost	13LPeroneusLong	14LSol	15LExtDigLong	16LFlexDigLong	17RAddLong	18RGlutMax	19RGlutMed	20RIliopsoas	21RSemiMemb	22RBicFemLong	23RRecFem	24RVastMed	25RVastLat	26RGasMed	27RTibAnt	28RTibPost	29RPeroneusLong	30RSol	31RExtDigLong	32RFlexDigLong
31.585	-0.00473	-0.008698	0.074005	-0.010834	-0.13428	-0.19455	-0.089874	0.004272	0.031738	-0.14725	-0.019531	0.003204	0.080719	-0.002747	-0.021057	0.027924	0.025787	-0.11337	0.2005	-0.039368	0.070801	0.13031	0.10925	-0.075226	-0.050354	-0.017395	-0.12985	-0.005951	-0.061951	0.13367	-0.000763	-0.001678
31.586	0.002594	-0.009766	0.009155	-0.004578	-0.18906	-0.27679	-0.077057	0.003967	0.05127	0.02243	-0.022278	-0.006256	0.1886	-0.1384	0.014191	0.035248	0.014801	-0.15808	0.13458	-0.075378	-0.056915	0.095215	0.13809	-0.086823	-0.056915	-0.014801	-0.049286	-0.00351	-0.056305	0.081024	0.001678	-0.010681
31.587	0.020294	-0.058899	-0.023193	-0.006866	-0.18188	-0.16159	-0.067139	0	0.021515	-0.056458	-0.02533	0.000458	0.3418	-0.037842	0.069275	0.032654	0.028687	-0.1561	-0.22629	-0.095825	-0.21454	0.040283	0.19745	-0.13977	-0.036011	-0.011292	0.049744	0.005798	-0.057983	0.011444	0.000916	-0.01297
31.588	0.023956	-0.062561	-0.056152	-0.005188	-0.027161	0.063629	-0.049591	-0.003967	-0.046997	0.089722	0.015869	0.00412	0.19501	-0.053711	0.005493	0.017853	0.037079	-0.1564	-0.2829	-0.066986	-0.054321	-0.016937	0.19073	-0.10605	-0.004578	-0.013428	0.11902	-0.006409	-0.042572	0.012512	0.00351	-0.02243
31.589	0.036316	-0.017853	0.056	0.002289	0.18188	0.28854	-0.048523	-0.002441	-0.090332	0.30777	0.023346	-0.004425	0.23773	-0.059662	-0.057373	0.016632	0.028381	-0.1416	-0.40024	-0.015717	-0.066528	-0.007629	0.21332	-0.019226	-0.003052	-0.015106	0.12909	-0.002289	-0.044708	-0.012054	0.001831	-0.025177
31.59	0.026245	-0.01297	0.066223	0.003052	0.19333	0.41077	-0.017853	0.001221	-0.071716	0.58166	0.00885	-0.010376	0.38757	-0.079041	-0.027008	0.033417	0.001068	-0.14801	0.26215	0.066071	0.017395	-0.005646	0.090027	0.003967	-0.000458	-0.014343	0.11566	-0.003815	-0.040436	0.092316	0.001831	-0.02594
31.591	0.003815	0.015106	0.007172	0.007629	0.12741	0.43762	-0.011444	0.003204	-0.02594	0.49377	0.021362	-0.005035	0.40726	-0.16602	0.037537	0.023041	-0.008087	-0.21866	0.34866	0.030823	0.032654	-0.036011	-0.084991	0.053101	0.065155	-0.013428	-0.024109	-0.001831	-0.015869	0.087585	-0.00473	-0.018463
31.592	0.014496	0.11505	0.016632	0.005798	0.0383	0.44754	-0.019531	0.003052	0.012512	0.19547	0.001831	-0.002747	0.25665	-0.00351	0.093689	0.032043	-0.010071	-0.1857	0.17349	0.036316	0.11154	-0.053558	-0.048218	0.090942	0.091858	-0.009613	-0.069733	-0.002747	-0.06012	0.02594	0.001678	-0.019531
31.593	0.01236	0.1178	-0.008087	0.012207	-0.000916	0.46387	-0.025177	0.005188	0.045471	0.056152	-0.048523	-0.018616	-0.17624	0.053864	0.050049	0.022278	-0.004425	-0.18707	-0.099182	0.036774	0.12146	-0.103	0.036774	0.079956	0.068512	-0.001831	0.076904	-0.000763	-0.06073	0.085907	0	-0.019989
31.594	0.008545	0.16785	-0.026703	-0.003052	-0.040588	0.4361	-0.016785	0.006866	0.033112	0.44342	-0.033264	-0.015106	-0.44357	0.022736	-0.013275	0.033875	-0.007782	-0.12833	-0.11078	-0.028687	0.054016	-0.043793	0.094604	0.031128	0.055695	0.001984	0.13596	-0.003357	-0.054626	0.063171	-0.000916	-0.018463
31.595	0.007629	0.24048	0.039825	-0.004425	0.001984	-0.071564	-0.063019	0.003052	-0.001221	0.25803	-0.003357	0.001526	-0.3508	-0.26764	-0.007324	0.018616	0.003967	-0.088501	-0.086365	-0.063171	0.019989	-0.037231	0.11078	0.06424	0.056458	0.000458	0.23834	-0.003815	-0.04715	0.1445	0	-0.013885
31.596	0.011292	0.2475	0.069275	0.002747	0.033264	-0.55313	-0.053253	-0.003662	-0.014648	-0.21179	-0.047913	0.017242	0.2948	-0.58411	-0.050049	0.020905	0.024719	-0.15121	-0.12894	-0.040741	0.029602	-0.017853	0.12482	-0.02655	0.044403	0.000916	0.088806	-0.003357	-0.14343	0.43457	0.000153	-0.007172
31.597	0.02182	0.17777	-0.003357	0.001831	0.012054	-0.48431	-0.073395	-0.000153	-0.004883	0.10346	-0.034332	0.003967	-0.001068	-0.41229	-0.035248	0.029297	0.01709	-0.11688	0.22278	0.04364	0.050812	-0.054626	0.13184	-0.008392	0.037994	-0.012207	-0.16434	-0.003662	-0.14465	0.62103	0.000763	-0.007629
31.598	0.023041	0.17471	-0.039215	0.005798	-0.022125	-0.61203	-0.072021	-0.001373	-0.008392	-0.21606	-0.011749	-0.007477	-0.059662	0.018921	-0.010681	0.042419	0.003357	-0.13931	-0.12009	0.10086	0.036316	-0.091858	0.062561	0.009613	0.036774	-0.019226	0.26642	-0.00061	-0.16449	0.61218	-0.000916	-0.005035
31.599	0.025635	0.20218	0.002136	0.001678	-0.046692	-0.6337	-0.091705	-0.011444	-0.003204	-0.58227	-0.013428	0.002899	-0.00412	0.027313	-0.090179	0.033417	0.001678	-0.17654	-0.21088	0.01297	0.14282	-0.11047	0.043335	-0.046082	0.037079	-0.012665	0.62576	-0.001221	-0.14511	0.32562	0	-0.013275
31.6	0.024719	0.23651	0.16678	-0.001526	-0.032654	-0.32562	-0.084991	-0.010071	0.051117	-0.39017	-0.016174	-0.009155	0.34515	-0.029602	-0.10666	0.021362	0.00824	-0.11978	0.009918	0.024872	0.13977	-0.058746	0.064087	-0.012665	0.055695	-0.005951	0.61554	0.001526	-0.021515	-0.00412	-0.00061	-0.002899
31.601	0.020447	0.24735	0.087433	0.001984	0.073547	-0.13565	-0.084686	0.001984	0.060577	-0.12741	-0.036163	-0.013428	0.57938	-0.043182	0.04715	0.042267	0.020599	-0.13168	0.095215	0.019989	-0.012817	0.067444	0.11353	-0.048218	0.045776	-0.002441	0.15778	-0.002594	0.08728	-0.35111	0.00061	0.001221
31.602	0.014038	0.2565	0.030212	-0.004578	0.11429	-0.080719	-0.093842	-0.000153	0.063782	0.051727	-0.030975	-0.000916	0.15595	0.078888	0.14557	0.046997	-0.003357	-0.13626	0.056915	-0.006409	-0.3212	0.13779	0.13199	0.014038	0.048828	0.006866	-0.93109	-0.003357	0.19562	-0.53375	-0.000458	-0.00824
31.603	0.001984	0.19165	0.043182	0.006714	0.075989	0.089569	-0.15778	0.029602	0.078278	-0.1474	-0.001373	-0.000305	-0.73135	0.071869	-0.022583	0.040894	-0.005188	-0.1683	0.060425	-0.005341	-0.24902	0.017548	0.13672	-0.028687	0.041809	0.010529	-1.0963	-0.001984	0.19699	-0.39612	0.001984	-0.006104
31.604	0.009613	0.21561	0.015717	0.005188	0.025177	0.2298	-0.13901	-0.023499	0.020294	-0.31998	0.00412	-0.008087	-0.53329	-0.10559	-0.16037	0.041199	0.032349	-0.13168	0.28854	0.056763	0.009918	-0.087738	0.16571	-0.006409	0.041046	0.018768	-0.29938	-0.003815	0.001526	-0.30518	-0.003052	-0.017395
31.605	0.007324	0.23254	0.027008	0.007324	-0.003052	0.28931	-0.056305	0.010376	-0.074005	-0.22659	-0.007477	0.022736	-0.034027	0.046997	-0.11749	0.04303	0.01297	-0.1561	0.18372	0.12299	0.006409	-0.025482	0.1265	0.003815	0.043335	0.006561	-0.006409	-0.007477	-0.033264	-0.28366	-0.000305	-0.014801
31.606	-0.00885	0.20065	-0.011749	0.002289	-0.002899	0.29526	0.028229	0.015564	-0.058899	-0.027618	-0.006104	0.019836	0.055389	0.06546	-0.20615	0.047302	-0.021362	-0.16525	-0.23178	0.12558	0.037079	0.096436	-0.01236	0.006714	-0.001984	0.00351	0.11505	-0.003662	-0.046539	-0.23819	0.000458	-0.010376
31.607	-0.022125	0.30273	-0.010529	0.002899	0.003204	0.29785	0.079498	0.001373	-0.040588	0.062714	-0.005646	-0.011444	-0.12268	0.26535	-0.01709	0.04837	-0.011902	-0.056458	-0.052032	-0.014343	0.10574	0.1297	-0.099182	0.005035	-0.03479	-0.000153	0.40863	-0.007477	-0.08255	-0.19394	-0.001526	-0.019531
